<?xml version="1.0" encoding="UTF-8" standalone="no"?>
<svg viewBox="0 0 744.09448819 1052.3622047" xmlns="http://www.w3.org/2000/svg" xmlns:xlink="http://www.w3.org/1999/xlink">
<defs>
<linearGradient id="linearGradient6910">
<stop offset="0" stop-color="#fff"/>
<stop offset="1" stop-color="#fff" stop-opacity="0"/>
</linearGradient>
<linearGradient id="linearGradient6104">
<stop offset="0" stop-color="#999"/>
<stop offset="1" stop-color="#999" stop-opacity="0"/>
</linearGradient>
<linearGradient gradientUnits="userSpaceOnUse" id="linearGradient5409" x1="46.94092" x2="30" y1="396.51117" y2="371.64789">
<stop offset="0" stop-color="#b7bec8"/>
<stop offset="1" stop-color="#b7bec8" stop-opacity="0"/>
</linearGradient>
<linearGradient gradientUnits="userSpaceOnUse" id="linearGradient5413" x1="-74.79342" x2="-126.58017">
<stop offset="0" stop-color="#91d3ef"/>
<stop offset="1" stop-color="#91d3ef" stop-opacity="0"/>
</linearGradient>
<linearGradient gradientUnits="userSpaceOnUse" id="linearGradient5415" x1="-79.29697" x2="-99.39178" y1="823.05756" y2="817.33014">
<stop offset="0" stop-color="#67c8de"/>
<stop offset="1" stop-color="#67c8de" stop-opacity="0"/>
</linearGradient>
<linearGradient id="linearGradient7437-7">
<stop offset="0" stop-color="#ccc"/>
<stop offset="1" stop-color="#ccc" stop-opacity="0"/>
</linearGradient>
<radialGradient cx="30" cy="371.64789" gradientUnits="userSpaceOnUse" id="radialGradient5411" r="35">
<stop offset="0"/>
<stop offset="1" stop-opacity="0"/>
</radialGradient>
<radialGradient cx="80.38844" cy="220.64992" gradientTransform="matrix(2.34471,.20547,-.03504,.39991,64.95898,-166.68135)" gradientUnits="userSpaceOnUse" id="radialGradient7588" r="90.38571">
<stop offset="0" stop-color="#00aad4"/>
<stop offset="1" stop-color="#37abc8" stop-opacity="0"/>
</radialGradient>
<radialGradient cx="-131.95842" cy="753.86566" gradientTransform="matrix(1,-1.08696,.79993,.73593,-595.72082,44.49337)" gradientUnits="userSpaceOnUse" id="radialGradient4296" r="24.64286">
<stop offset="0" stop-color="#4d4d4d"/>
<stop offset="1" stop-color="#4d4d4d" stop-opacity="0"/>
</radialGradient>
<radialGradient cx="-127.54893" cy="766.90204" gradientTransform="matrix(-1,2.32184,-1.06623,-.45922,541.6544,1389.5596)" gradientUnits="userSpaceOnUse" id="radialGradient4411" r="43.94163">
<stop offset="0" stop-color="#41aac2"/>
<stop offset="1" stop-color="#41aac2" stop-opacity="0"/>
</radialGradient>
<radialGradient cx="207.61467" cy="688.35785" gradientTransform="matrix(-2.62235,-3.47615,1.98594,-1.49816,-321.52542,2221.7603)" gradientUnits="userSpaceOnUse" id="radialGradient4421" r="18.11071">
<stop offset="0" stop-color="#51b6cd"/>
<stop offset="1" stop-color="#51b6cd" stop-opacity="0"/>
</radialGradient>
<radialGradient cx="205.51556" cy="856.45404" gradientTransform="matrix(.11105,-27.40743,14.14803,.05732,-11640.316,6265.9211)" gradientUnits="userSpaceOnUse" id="radialGradient5662" r="9.64286">
<stop offset="0" stop-color="#92d1e0" stop-opacity=".63462"/>
<stop offset="1" stop-color="#92d1e0" stop-opacity="0"/>
</radialGradient>
<radialGradient cx="166.31467" cy="843.5061" gradientTransform="matrix(1.63094,-.5471,.29153,.86907,-350.84247,200.52429)" gradientUnits="userSpaceOnUse" id="radialGradient6122" r="18.18275">
<stop offset="0" stop-color="#b3b3b3"/>
<stop offset="1" stop-color="#b3b3b3" stop-opacity="0"/>
</radialGradient>
<radialGradient cx="561.14667" cy="624.31683" gradientTransform="matrix(-1.62712,-4.8483,2.65168,-.88992,-155.5391,3931.5703)" gradientUnits="userSpaceOnUse" id="radialGradient6906" r="29.7995">
<stop offset="0" stop-color="#57bad1"/>
<stop offset="1" stop-color="#57bad1" stop-opacity="0"/>
</radialGradient>
<radialGradient cx="10.89477" cy="126.12094" gradientTransform="matrix(3.16986,-1.02435,.41555,1.28592,-4.11201,-45.17275)" gradientUnits="userSpaceOnUse" id="radialGradient5588" r="173.74623" xlink:href="#linearGradient6910"/>
<radialGradient cx="100.32652" cy="179.79514" gradientTransform="matrix(.54545,-6.16216,1.67258,.20937,-255.11814,763.10973)" gradientUnits="userSpaceOnUse" id="radialGradient5644" r="4.04061" xlink:href="#linearGradient7437-7"/>
<radialGradient cx="-39.90566" cy="880.2934" gradientTransform="matrix(2.56545,-1.06144,.56372,1.37224,-125.14354,-614.85506)" gradientUnits="userSpaceOnUse" id="radialGradient3930" r="173.84415" xlink:href="#linearGradient6910"/>
<radialGradient cx="-111.42715" cy="710.54169" gradientTransform="matrix(1.90945,.0658,-.00352,.10222,401.69637,426.65629)" gradientUnits="userSpaceOnUse" id="radialGradient3982" r="148.62757" xlink:href="#linearGradient6910"/>
<radialGradient cx="91.73123" cy="893.76239" gradientTransform="matrix(-1.19013,-5.86042,3.17002,-1.16487,-2777.94,2626.0915)" gradientUnits="userSpaceOnUse" id="radialGradient4300" r="37.9622" xlink:href="#linearGradient6910"/>
<radialGradient cx="102.71246" cy="805.91711" gradientTransform="matrix(-.02305,-1.18512,-.31806,-.03417,77.62456,1272.7649)" gradientUnits="userSpaceOnUse" id="radialGradient6118" r="31.67254" xlink:href="#linearGradient7437-7"/>
<radialGradient cx="-218.57143" cy="1108.8568" gradientTransform="matrix(1.37183,-1.84969,.8265,.66438,-844.4546,5.08336)" gradientUnits="userSpaceOnUse" id="radialGradient6120" r="47.95083" xlink:href="#linearGradient6104"/>
<radialGradient cx="8.08122" cy="1089.0621" gradientTransform="matrix(1.64122,-1.60048,.86236,.88431,-758.48165,-43.23691)" gradientUnits="userSpaceOnUse" id="radialGradient6380" r="83.3125" xlink:href="#linearGradient6910"/>
<radialGradient cx="-218.57143" cy="1108.8568" gradientTransform="matrix(1.37183,-1.84969,.8265,.66438,-844.4546,5.08336)" gradientUnits="userSpaceOnUse" id="radialGradient6120-0" r="47.95084" xlink:href="#linearGradient6104"/>
<radialGradient cx="-416.75323" cy="1067.9641" gradientTransform="matrix(1.73105,.17323,-.02221,.28125,328.38096,907.42568)" gradientUnits="userSpaceOnUse" id="radialGradient6853" r="153.61182" xlink:href="#linearGradient7437-7"/>
<radialGradient cx="252.53813" cy="512.45557" gradientTransform="matrix(1.8806,.0085,-4.4286399e-4,.09805,-222.15738,470.64671)" gradientUnits="userSpaceOnUse" id="radialGradient6916" r="135.36044" xlink:href="#linearGradient6910"/>
</defs>
<g transform="matrix(-.8294,0,0,.75159,-20.27254,81.36074)">
<path d="m-418.44154,1141.2987-1.68832-19.0074 159.54545-.9503c23.77705,7.4445.12773-17.0347 141.3961,30.8869l1.26623,13.7804-203.44155,37.0643-97.07791-61.7739z" fill="#b3b3b3" stroke="#000" stroke-width="5.01586"/>
<path d="m-418.44154,1141.2987-1.68832-19.0074 159.54545-.9503c23.77705,7.4445.12773-17.0347 141.3961,30.8869l1.26623,13.7804-203.44155,37.0643-97.07791-61.7739z" fill="url(#radialGradient6853)" stroke="#000" stroke-width="5.01586"/>
<path d="m-418.44155,1122.2913 158.7013-15.2058 141.81818,43.7169-204.28571,32.3125-96.23377-60.8236z" fill="#808080" stroke="#000" stroke-width="5.01586"/>
</g>
<g transform="matrix(.84615,0,0,.75159,713.77916,70.90104)">
<path d="m-418.44154,1141.2987-1.68832-19.0074 159.54545-.9503c23.77705,7.4445.12773-17.0347 141.3961,30.8869l1.26623,13.7804-203.44155,37.0643-97.07791-61.7739z" fill="#b3b3b3" stroke="#000" stroke-width="5.01586"/>
<path d="m-418.44154,1141.2987-1.68832-19.0074 159.54545-.9503c23.77705,7.4445.12773-17.0347 141.3961,30.8869l1.26623,13.7804-203.44155,37.0643-97.07791-61.7739z" fill="url(#radialGradient6853)" stroke="#000" stroke-width="5.01586"/>
<path d="m-418.44155,1122.2913 158.7013-15.2058 141.81818,43.7169-204.28571,32.3125-96.23377-60.8236z" fill="#808080" stroke="#000" stroke-width="5.01586"/>
</g>
<path d="m434.36559,726.702c-45.18924,0-81.8125,18.5327-81.8125,41.4062 0,7.251 3.68822,14.0724 10.15625,20.0001-6.46803,5.9278-10.15625,12.7491-10.15625,20s3.68822,14.0723 10.15625,20c-6.46803,5.9278-10.15625,12.7491-10.15625,20s3.68822,14.0723 10.15625,20c-6.46803,5.9278-10.15625,12.7491-10.15625,20 0,22.8736 36.62326,41.4063 81.8125,41.4063s81.8125-18.5327 81.8125-41.4063c0-7.2509-3.68822-14.0722-10.15625-20 6.46803-5.9277 10.15625-12.749 10.15625-20s-3.68822-14.0722-10.15625-20c6.46803-5.9277 10.15625-12.749 10.15625-20s-3.68822-14.0722-10.15625-20c6.46803-5.9277 10.15625-12.7491 10.15625-20.0001 0-22.8735-36.62326-41.4062-81.8125-41.4062z" fill="#666" fill-rule="evenodd" stroke="#100606" stroke-width="4"/>
<path d="m431.5759,726.10259c-45.18924,0-81.8125,18.5328-81.8125,41.4063 0,5.8453 2.40105,11.3937 6.71875,16.4375h150.1875c4.3177-5.0438 6.71875-10.5922 6.71875-16.4375 0-22.8735-36.62326-41.4063-81.8125-41.4063z" fill="#333" fill-rule="evenodd"/>
<path d="m247.14286,730.95592c-45.18924,0-81.8125,18.5327-81.8125,41.4062 0,7.251 3.68822,14.07234 10.15625,20.00004-6.46803,5.9278-10.15625,12.7491-10.15625,20s3.68822,14.0723 10.15625,20c-6.46803,5.9278-10.15625,12.7491-10.15625,20s3.68822,14.0723 10.15625,20c-6.46803,5.9278-10.15625,12.7491-10.15625,20 0,22.8736 36.62326,41.4063 81.8125,41.4063s81.8125-18.5327 81.8125-41.4063c0-7.2509-3.68822-14.0722-10.15625-20 6.46803-5.9277 10.15625-12.749 10.15625-20s-3.68822-14.0722-10.15625-20c6.46803-5.9277 10.15625-12.749 10.15625-20s-3.68822-14.0722-10.15625-20c6.46803-5.9277 10.15625-12.74904 10.15625-20.00004 0-22.8735-36.62326-41.4062-81.8125-41.4062z" fill="#1a1a1a" fill-opacity=".33235" stroke="#100606" stroke-width="4"/>
<path d="m247.37054,732.97627c-45.18924,0-81.8125,18.5327-81.8125,41.4062 0,7.251 3.68822,14.07234 10.15625,20.00004-6.46803,5.9278-10.15625,12.7491-10.15625,20s3.68822,14.0723 10.15625,20c-6.46803,5.9278-10.15625,12.7491-10.15625,20s3.68822,14.07235 10.15625,20.00005c-6.46803,5.9278-10.15625,12.7491-10.15625,20 0,22.8736 36.62326,41.4063 81.8125,41.4063s81.8125-18.5327 81.8125-41.4063c0-7.2509-3.68822-14.0722-10.15625-20 6.46803-5.9277 10.15625-12.74905 10.15625-20.00005s-3.68822-14.0722-10.15625-20c6.46803-5.9277 10.15625-12.749 10.15625-20s-3.68822-14.0722-10.15625-20c6.46803-5.9277 10.15625-12.74904 10.15625-20.00004 0-22.8735-36.62326-41.4062-81.8125-41.4062z" fill="url(#radialGradient6380)" stroke="#261c1c" stroke-width="3"/>
<path d="m-76.61101,819.25287h23.98779a25.9683,25.9683 0 0,1 25.9683,25.9683v200.43834a25.9683,25.9683 0 0,1 -25.9683,25.9683h-23.98779a25.9683,25.9683 0 0,1 -25.9683-25.9683v-200.43834a25.9683,25.9683 0 0,1 25.9683-25.9683" fill="#67c8de" stroke="#000" stroke-width="3.00037" transform="matrix(.88715,-.45827,.46999,.87499,187.07374,-231.09605)"/>
<path d="m-76.611,819.25281h23.98779a25.9683,25.9683 0 0,1 25.9683,25.9683v200.43834a25.9683,25.9683 0 0,1 -25.9683,25.9683h-23.98779a25.9683,25.9683 0 0,1 -25.9683-25.9683v-200.43834a25.9683,25.9683 0 0,1 25.9683-25.9683" fill="url(#radialGradient4300)" transform="matrix(.88715,-.45827,.46999,.87499,187.07374,-231.09605)"/>
<g transform="matrix(.92308,0,0,.89048,616.31869,-150.89194)">
<path d="m-85,751.64789c0,21.30241-16.62943,38.57143-37.14286,38.57143s-37.14286-17.26902-37.14286-38.57143 16.62943-38.57143 37.14286-38.57143 37.14286,17.26902 37.14286,38.57143z"/>
<path d="m-100,742.7193c0,14.79334-11.03299,26.78571-24.64286,26.78571s-24.64286-11.99237-24.64286-26.78571 11.03299-26.78572 24.64286-26.78572 24.64286,11.99238 24.64286,26.78572z" fill="url(#radialGradient4296)" transform="translate(.2451,-.95939)"/>
</g>
<g transform="translate(-69.55943,538.62967)">
<path d="m256.57874,153.32642c0,66.94702-77.78883,121.2183-173.74623,121.2183s-173.74623-54.27128-173.74623-121.2183 77.78884-121.21831 173.74623-121.21831 173.74623,54.27128 173.74623,121.21831z" fill="#87cdde" stroke="#282e2f" stroke-width="3" transform="translate(326.74695,-215.06308)"/>
<path d="m247.14286-23.35211c0,0-15.71429-30-10.00001-54.28571 3.73064-15.85524 7.37883-33.85587 12.85715-37.14286 14.28571-8.57143 20.31309,27.47161 37.14285,32.85714l121.42857,28.57143 7.14286,10-168.57142,20z" fill="url(#radialGradient7588)"/>
<path d="m256.57874,153.32642c0,66.94702-77.78883,121.2183-173.74623,121.2183s-173.74623-54.27128-173.74623-121.2183 77.78884-121.21831 173.74623-121.21831 173.74623,54.27128 173.74623,121.21831z" fill="url(#radialGradient5588)" opacity=".90865" transform="matrix(.99589,0,0,1,326.54654,-214.05293)"/>
</g>
<path d="m65,371.64789c0,18.93547-15.67003,34.28571-35,34.28571s-35-15.35024-35-34.28571 15.67003-34.28572 35-34.28572 35,15.35024 35,34.28572z" fill="#025" stroke="#a9cff4" stroke-width="4.79023" transform="matrix(-.89143,0,0,.95092,381.19133,79.83257)"/>
<path d="m65,371.64789c0,18.93547-15.67003,34.28571-35,34.28571s-35-15.35024-35-34.28571 15.67003-34.28572 35-34.28572 35,15.35024 35,34.28572z" fill="#fff" transform="matrix(-.75251,0,0,.77236,378.99044,146.53073)"/>
<path d="m65,371.64789c0,18.93547-15.67003,34.28571-35,34.28571s-35-15.35024-35-34.28571 15.67003-34.28572 35-34.28572 35,15.35024 35,34.28572z" fill="url(#linearGradient5409)" stroke="url(#radialGradient5411)" transform="matrix(-.75251,0,0,.77236,378.18327,146.52015)"/>
<g transform="translate(455.85021,-400.80854)">
<path d="m-37.14286,336.64789c0,7.1008-5.43654,12.85714-12.14286,12.85714s-12.14286-5.75634-12.14286-12.85714 5.43654-12.85714 12.14286-12.85714 12.14286,5.75633 12.14286,12.85714z" fill="#374548" transform="matrix(-.89934,0,0,.92684,-131.25725,522.20156)"/>
<path d="m-38.57143,335.93362c0,3.55041-3.51776,6.42858-7.85714,6.42858s-7.85714-2.87817-7.85714-6.42858 3.51776-6.42857 7.85714-6.42857 7.85714,2.87817 7.85714,6.42857z" fill="#d7eef4" transform="matrix(-.89934,0,0,1.1328,-133.31287,450.62822)"/>
<path d="m-100.30577,807.07108c11.92405,0 22.08518,8.29963 25.99575,19.93938-1.71178-.53721-3.51512-.83499-5.3825-.83499h-44.59794c-.57876,0-1.14935.0127-1.71531.0668 4.09654-11.22586 14.04588-19.1712 25.70001-19.1712z" fill="#abe0ec"/>
<path d="m-126.06219,825.29495 50.75084-1e-005-50.75084,1e-005z" fill="#acf" stroke="url(#linearGradient5413)" stroke-width="1.95649"/>
<path d="m-99.53966,807.36044c11.92404,0 22.08518,8.29962 25.99574,19.93937-1.71177-.53721-3.51511-.83498-5.38251-.83498h-44.59792c-.57876,0-1.14935.0127-1.71531.0668 4.09653-11.22586 14.04587-19.17119 25.7-19.17119z" fill="url(#linearGradient5415)"/>
</g>
<path d="m65,371.64789c0,18.93547-15.67003,34.28571-35,34.28571s-35-15.35024-35-34.28571 15.67003-34.28572 35-34.28572 35,15.35024 35,34.28572z" fill="#025" stroke="#a9cff4" stroke-width="4.79023" transform="matrix(-.72971,0,0,.84007,458.86553,123.21781)"/>
<path d="m65,371.64789c0,18.93547-15.67003,34.28571-35,34.28571s-35-15.35024-35-34.28571 15.67003-34.28572 35-34.28572 35,15.35024 35,34.28572z" fill="#fff" transform="matrix(-.61599,0,0,.68233,455.45395,181.84201)"/>
<path d="m65,371.64789c0,18.93547-15.67003,34.28571-35,34.28571s-35-15.35024-35-34.28571 15.67003-34.28572 35-34.28572 35,15.35024 35,34.28572z" fill="url(#linearGradient5409)" stroke="url(#radialGradient5411)" transform="matrix(-.61599,0,0,.68233,455.45394,181.84202)"/>
<g transform="matrix(.81859,0,0,.88343,518.32652,-301.83957)">
<path d="m-37.14286,336.64789c0,7.1008-5.43654,12.85714-12.14286,12.85714s-12.14286-5.75634-12.14286-12.85714 5.43654-12.85714 12.14286-12.85714 12.14286,5.75633 12.14286,12.85714z" fill="#374548" transform="matrix(-.89934,0,0,.92684,-131.25725,522.20156)"/>
<path d="m-38.57143,335.93362c0,3.55041-3.51776,6.42858-7.85714,6.42858s-7.85714-2.87817-7.85714-6.42858 3.51776-6.42857 7.85714-6.42857 7.85714,2.87817 7.85714,6.42857z" fill="#d7eef4" transform="matrix(-.89934,0,0,1.1328,-133.31287,450.62822)"/>
<path d="m-100.30577,807.07108c11.92405,0 22.08518,8.29963 25.99575,19.93938-1.71178-.53721-3.51512-.83499-5.3825-.83499h-44.59794c-.57876,0-1.14935.0127-1.71531.0668 4.09654-11.22586 14.04588-19.1712 25.70001-19.1712z" fill="#abe0ec"/>
<path d="m-126.06219,825.29495 50.75084-1e-005-50.75084,1e-005z" fill="#acf" stroke="url(#linearGradient5413)" stroke-width="1.95649"/>
<path d="m-99.53966,807.36044c11.92404,0 22.08518,8.29962 25.99574,19.93937-1.71177-.53721-3.51511-.83498-5.38251-.83498h-44.59792c-.57876,0-1.14935.0127-1.71531.0668 4.09653-11.22586 14.04587-19.17119 25.7-19.17119z" fill="url(#linearGradient5415)"/>
</g>
<path d="m110.10663,176.05486c0,6.41575-3.27889,11.61675-7.32361,11.61675s-7.32361-5.201-7.32361-11.61675 3.27889-11.61676 7.32361-11.61676 7.32361,5.201 7.32361,11.61676z" fill="#666" transform="translate(96.50269,282.02163)"/>
<path d="m106.5711,177.065c0,4.46314-1.80905,8.08122-4.04061,8.08122s-4.04061-3.61808-4.04061-8.08122 1.80904-8.08122 4.04061-8.08122 4.04061,3.61809 4.04061,8.08122z" fill="url(#radialGradient5644)" transform="matrix(1.375,0,0,1.15625,58.62519,253.09253)"/>
<path d="m165.67118,489.34946v265.71873c0,0 73.46968,40.40611 170.81368,42.42641s176.87461-42.42641 176.87461-42.42641v-265.71873h-3.34584c-9.86236,2.99055-91.8086,25.21828-161.62256,23.20622-49.00151-1.41224-150.21652-18.1785-176.67879-23.20622h-6.0411z" fill="#67c8de" stroke="#000" stroke-width="3"/>
<path d="m170.72194,492.46113-2.02031,262.01742c0,0 71.12598,39.08635 166.77307,41.07845s176.87462-41.07845 176.87462-41.07845v-262.01742h-3.28751c-9.69045,2.94889-90.20819,24.867-158.80516,22.88297-48.14732-1.39257-147.59794-17.92528-173.59891-22.88297h-5.9358z" fill="url(#radialGradient3930)"/>
<path d="m165.28383,488.23852c-.0388,12.3834 11.07218,14.89775 17.6643,16.72895 44.78105,12.43956 109.99803,13.68945 154.72893,14.98985 63.02819,1.8323 151.62545-8.92074 173.77899-12.96954l.61062-18.74926c-184.61438,27.47478-346.64474-44.03792-346.78284,0z" fill="#465861" fill-opacity=".85882" stroke="#000"/>
<path d="m165.28383,488.23852c-.0388,12.3834 11.07218,14.89775 17.6643,16.72895 44.78105,12.43956 109.99804,13.68945 154.72893,14.98985 63.02819,1.8323 151.62545-8.92074 173.77899-12.96954l.61062-18.74926c-184.61438,27.47478-346.64474-44.03792-346.78284,0z" fill="#465861" fill-opacity=".85882" stroke="#000" stroke-width="2"/>
<path d="m168.68434,487.10793c-.0334,8.92263 9.52715,10.7343 15.19939,12.05374 38.53224,8.96311 91.7916,6.29226 130.28068,7.22924 54.23313,1.32023 105.75862,1.48925 148.10105-4.34497 2.4987-.34429 5.17789-7.33344 2.66826-7.08087-129.40588,13.02349-296.13056-39.58788-296.24938-7.85714z" fill="url(#radialGradient3982)" opacity=".625"/>
<path d="m178.52129,509.05141c-4.20696,0-8.25644.61111-12.09375,1.75v77.40625c0,1.34873-.11614,2.67655-.3125,3.96875 3.92819,1.19877 8.08581,1.84375 12.40625,1.84375 23.46448,0 42.5-19.00427 42.5-42.46875s-19.03552-42.5-42.5-42.5z" fill="#808080" stroke="#000" stroke-width="3.82971"/>
<g transform="matrix(1,0,0,.97381,297.73459,-183.14239)">
<path d="m-85,751.64789c0,21.30241-16.62943,38.57143-37.14286,38.57143s-37.14286-17.26902-37.14286-38.57143 16.62943-38.57143 37.14286-38.57143 37.14286,17.26902 37.14286,38.57143z"/>
<path d="m-100,742.7193c0,14.79334-11.03299,26.78571-24.64286,26.78571s-24.64286-11.99237-24.64286-26.78571 11.03299-26.78572 24.64286-26.78572 24.64286,11.99238 24.64286,26.78572z" fill="url(#radialGradient4296)" transform="translate(.2451,-.95939)"/>
</g>
<path d="m510.01457,487.66557-22.3713,2.88253c14.90871-14.57472-2.7557-66.30063-13.13198-80.42968 25.2918,24.95236 34.73841,39.46419 35.50328,77.54715z" fill="url(#radialGradient4421)" opacity=".47596"/>
<path d="m191.1635,765.69212c-2.02031-.50507-24.24366-10.6066-24.24366-10.6066v-155.5635l38.89087-29.29442-14.64721,195.46452z" fill="#999" opacity=".37981"/>
<g transform="translate(292.85714,-212.85714)">
<path d="m-76.61101,819.25287h23.98779a25.9683,25.9683 0 0,1 25.9683,25.9683v200.43834a25.9683,25.9683 0 0,1 -25.9683,25.9683h-23.98779a25.9683,25.9683 0 0,1 -25.9683-25.9683v-200.43834a25.9683,25.9683 0 0,1 25.9683-25.9683" fill="#67c8de" stroke="#000" stroke-width="3.00037" transform="matrix(.90413,.4238,-.40702,.906,276.93907,30.01344)"/>
<path d="m-76.611,819.25281h23.98779a25.9683,25.9683 0 0,1 25.9683,25.9683v200.43834a25.9683,25.9683 0 0,1 -25.9683,25.9683h-23.98779a25.9683,25.9683 0 0,1 -25.9683-25.9683v-200.43834a25.9683,25.9683 0 0,1 25.9683-25.9683" fill="url(#radialGradient4300)" transform="matrix(.90413,.4238,-.40702,.906,276.93907,30.01344)"/>
<path d="m-104.55079,755.37733-27.77919-12.6269c-28.83764-10.18434-47.8638,71.61205-60.10408,100.51017 0,0 40.07636-80.91741 51.0127-89.3985 11.63636-9.02395 35.86042,2.52538 36.87057,1.51523z" fill="url(#radialGradient4411)"/>
</g>
<g transform="matrix(.84615,0,0,.75159,182.76131,178.6243)">
<path d="m-85,751.64789c0,21.30241-16.62943,38.57143-37.14286,38.57143s-37.14286-17.26902-37.14286-38.57143 16.62943-38.57143 37.14286-38.57143 37.14286,17.26902 37.14286,38.57143z"/>
<path d="m-100,742.7193c0,14.79334-11.03299,26.78571-24.64286,26.78571s-24.64286-11.99237-24.64286-26.78571 11.03299-26.78572 24.64286-26.78572 24.64286,11.99238 24.64286,26.78572z" fill="url(#radialGradient4296)" transform="translate(.2451,-.95939)"/>
</g>
<path d="m490.71429,492.36218 18.57143-1.42857-1.42857,265-17.85715,7.85714 .71429-271.42857z" fill="url(#radialGradient5662)"/>
<g transform="translate(278.57142,-312.85714)">
<path d="m-202.34375,1053.3125-35.6875,1.2187c0,0-17.38343,25.5834-13.5,65.6876 3.79856,39.2279 43.8125,42.625 43.8125,42.625s3.82456-30.3723-.71875-30.8126c-18.21239-1.7654-18.99896-26.0787-13.5625-37.1562 3.5923-7.3197 13.57287-9.7317 18.46875-10.5 1.3261.1079 15.1377,1.4435 19.40625,10.8438 5.03712,11.093 4.34332,35.4508-12.53125,37.2187-4.20958.441-.6875,30.8437-.6875,30.8437s37.10546-3.4047 40.625-42.6874c3.59816-40.1603-12.53125-65.7813-12.53125-65.7813l-33.0625-1.2187v.1562l-.0312-.4375z" fill="#666" stroke="#261c1c" stroke-width="4.01611"/>
<path d="m-191.84965,1085.1366c7.6129,2.5826 14.63401,8.1649 14.93823,17.9801s-5.49759,21.4769-8.83702,24.2068 6.47818-1.9615 8.73959-5.2573c3.93122-5.7297 7.67238-17.5938 4.7346-23.9982s-20.30036-14.2258-19.5754-12.9314z" fill="url(#radialGradient6118)"/>
<path d="m-204.07302,1057.3779-32.49786,1.1554c0,0-15.82973,24.254-12.29339,62.2742 3.45905,37.1896 39.89666,40.4101 39.89666,40.4101s3.48273-28.794-.65451-29.2115c-16.58462-1.6736-17.30088-24.7235-12.35033-35.2254 3.27123-6.9394 12.35977-9.226 16.81807-9.9544 1.20757.1022 13.78473,1.3685 17.67177,10.2803 4.58692,10.5166 3.95512,33.6087-11.41125,35.2847-3.83333.4181-.62604,29.241-.62604,29.241s33.78906-3.2278 36.99404-40.4692c3.27657-38.0735-11.41125-62.3632-11.41125-62.3632l-30.10745-1.1553v.148l-.0284-.4147z" fill="url(#radialGradient6120)"/>
<path d="m195.96959,832.65399c0,9.20522-8.14069,16.66752-18.18274,16.66752s-18.18275-7.4623-18.18275-16.66752 8.1407-16.66752 18.18275-16.66752 18.18274,7.46231 18.18274,16.66752z" fill="url(#radialGradient6122)" transform="matrix(-.02092,-.67489,-.7557,-.07423,432.73589,1251.0391)"/>
</g>
<path d="m174.0421,905.38605c9.25476,14.56499 33.40676,21.07008 49.49747,14.14213-18.75229,1.84215-32.93116-8.16915-49.49747-14.14213z" fill="#666"/>
<path d="m181.08335,828.85515c0,0 29.31798,16.95271 60.74898,17.5508s73.33027-9.80507 73.33027-9.80507-58.84833,5.40568-78.80109,3.85726-58.0732-13.14957-55.27816-11.60299z" fill="#666"/>
<path d="m182.31891,875.07372c0,0 29.31798,16.95271 60.74898,17.5508s73.33027-9.80507 73.33027-9.80507-58.84833,5.40568-78.80109,3.85726-58.0732-13.14957-55.27816-11.60299z" fill="#666"/>
<path d="m365.20787,904.45055c9.25476,14.565 33.40676,21.0701 49.49747,14.1422-18.75229,1.8421-32.93116-8.1692-49.49747-14.1422z" fill="#333"/>
<path d="m372.24912,827.91965c0,0 29.31798,16.9527 60.74898,17.5508s73.33027-9.805 73.33027-9.805-58.84833,5.4056-78.80109,3.8572-58.0732-13.1496-55.27816-11.603z" fill="#333"/>
<path d="m373.48468,874.13825c0,0 29.31798,16.9527 60.74898,17.5508s73.33027-9.8051 73.33027-9.8051-58.84833,5.4057-78.80109,3.8573-58.0732-13.1496-55.27816-11.603z" fill="#333"/>
<path d="m-85,751.64789c0,21.30241-16.62943,38.57143-37.14286,38.57143s-37.14286-17.26902-37.14286-38.57143 16.62943-38.57143 37.14286-38.57143 37.14286,17.26902 37.14286,38.57143z" transform="matrix(.84615,0,0,.75159,738.49561,157.38398)"/>
<path d="m-100,742.7193c0,14.79334-11.03299,26.78571-24.64286,26.78571s-24.64286-11.99237-24.64286-26.78571 11.03299-26.78572 24.64286-26.78572 24.64286,11.99238 24.64286,26.78572z" fill="url(#radialGradient4296)" transform="matrix(.84615,0,0,.75159,740.13158,155.23434)"/>
<g transform="matrix(.89333,-.4494,.4494,.89333,341.44495,-305.17111)">
<path d="m-202.34375,1053.3125-35.6875,1.2187c0,0-17.38343,25.5834-13.5,65.6876 3.79856,39.2279 43.8125,42.625 43.8125,42.625s3.82456-30.3723-.71875-30.8126c-18.21239-1.7654-18.99896-26.0787-13.5625-37.1562 3.5923-7.3197 13.57287-9.7317 18.46875-10.5 1.3261.1079 15.1377,1.4435 19.40625,10.8438 5.03712,11.093 4.34332,35.4508-12.53125,37.2187-4.20958.441-.6875,30.8437-.6875,30.8437s37.10546-3.4047 40.625-42.6874c3.59816-40.1603-12.53125-65.7813-12.53125-65.7813l-33.0625-1.2187v.1562l-.0312-.4375z" fill="#666" stroke="#261c1c" stroke-width="4.01611"/>
<path d="m-191.84965,1085.1366c7.6129,2.5826 14.63401,8.1649 14.93823,17.9801s-5.49759,21.4769-8.83702,24.2068 6.47818-1.9615 8.73959-5.2573c3.93122-5.7297 7.67238-17.5938 4.7346-23.9982s-20.30036-14.2258-19.5754-12.9314z" fill="url(#radialGradient6118)"/>
<path d="m-204.07302,1057.3779-32.49786,1.1554c0,0-15.82973,24.254-12.29339,62.2742 3.45905,37.1896 39.89666,40.4101 39.89666,40.4101s3.48273-28.794-.65451-29.2115c-16.58462-1.6736-17.30088-24.7235-12.35033-35.2254 3.27123-6.9394 12.35977-9.226 16.81807-9.9544 1.20757.1022 13.78473,1.3685 17.67177,10.2803 4.58692,10.5166 3.95512,33.6087-11.41125,35.2847-3.83333.4181-.62604,29.241-.62604,29.241s33.78906-3.2278 36.99404-40.4692c3.27657-38.0735-11.41125-62.3632-11.41125-62.3632l-30.10745-1.1553v.148l-.0284-.4147z" fill="url(#radialGradient6120-0)"/>
<path d="m195.96959,832.65399c0,9.20522-8.14069,16.66752-18.18274,16.66752s-18.18275-7.4623-18.18275-16.66752 8.1407-16.66752 18.18275-16.66752 18.18274,7.46231 18.18274,16.66752z" fill="url(#radialGradient6122)" transform="matrix(-.02092,-.67489,-.7557,-.07423,432.73589,1251.0391)"/>
</g>
<path d="m515.1778,590.72247-1.01015-41.41625c15.64763,14.67439 24.81891-21.40706 27.27411-32.32489 0,0-7.07106-9.09137 2.02031-5.05076s20.20305,23.23351 20.20305,23.23351 1.01016,25.25381-11.11168,33.33503-34.34518,4.04061-34.34518,4.04061c12.90096,30.5609 30.57103,70.79712 46.46702,108.08633l-49.49748-89.90358z" fill="url(#radialGradient6906)"/>
<path d="m507.09658,510.92042c-89.44067,20.91832-179.7015,15.6369-270.72088,11.11168 90.51011,18.63135 184.1355,26.17206 270.72088-11.11168z" fill="url(#radialGradient6916)"/>
</svg>
